<?xml version="1.0" ?><svg id="Layer_1" style="enable-background:new 0 0 30 30;" version="1.1" viewBox="0 0 30 30" xml:space="preserve" xmlns="http://www.w3.org/2000/svg" xmlns:xlink="http://www.w3.org/1999/xlink"><style type="text/css">
	.st0{fill:#97C2F7;}
	.st1{fill:#B3B3B3;}
	.st2{fill:#A3875E;}
</style><g><g><path class="st0" d="M12.859,1.482H8.291c-0.438,0-0.797,0.359-0.797,0.797V3.39c0,0.23,0.102,0.434,0.259,0.58    c0.046,0.814,1.231,1.468,2.694,1.468c1.362,0,2.478-0.567,2.665-1.302c0.313-0.107,0.544-0.397,0.544-0.746V2.279    C13.656,1.84,13.297,1.482,12.859,1.482z"/></g><g><path class="st0" d="M21.263,1.287h-4.567c-0.438,0-0.797,0.359-0.797,0.797v1.112c0,0.23,0.102,0.434,0.259,0.58    c0.046,0.814,1.231,1.468,2.694,1.468c1.362,0,2.478-0.567,2.665-1.302c0.313-0.107,0.544-0.397,0.544-0.746V2.084    C22.06,1.646,21.701,1.287,21.263,1.287z"/></g><g><path class="st1" d="M7.743,19.646h4.963c0,0,1.038,0.073,1.101,3.01l-0.151,2.966l-3.427,3.321l-3.431-2.845l0.118-5.384    C6.915,20.714,7.304,19.417,7.743,19.646z"/></g><g><rect class="st2" height="10.62" width="1.267" x="9.634" y="6"/></g><g><rect class="st2" height="11.314" width="1.267" x="18.346" y="5.663"/></g><g><path d="M23.598,28.057c-0.07-0.292-0.258-1.109-0.286-1.389c-0.103-1.021,0.001-4.178,0.002-4.223    c0-1.434-1.037-2.601-2.311-2.601h-1.624v-2.365h0.334c0.221,0,0.4-0.179,0.4-0.4V5.893c1.558-0.46,2.706-1.888,2.706-3.594V1.482    c0-0.221-0.179-0.4-0.4-0.4h-1.803V1.057c0-0.221-0.179-0.4-0.4-0.4h-2.322c-0.221,0-0.4,0.179-0.4,0.4v0.025h-1.803    c-0.221,0-0.4,0.179-0.4,0.4v0.817c0,1.649,1.073,3.038,2.552,3.546v11.234c0,0.221,0.179,0.4,0.4,0.4h0.335v2.365H17.3    c-1.274,0-2.311,1.167-2.311,2.601v4.263c0,0.01,0.007,0.164,0.008,0.173c-0.011,0.207-0.14,0.833-0.219,1.18    c-0.049,0.215,0.086,0.43,0.301,0.479c0.213,0.049,0.43-0.085,0.479-0.301c0.022-0.099,0.22-0.973,0.238-1.315    c0.003-0.053,0-0.106-0.007-0.215v-4.263c0-0.6,0.25-1.128,0.63-1.456c0.16,1.445,0.249,3.069,0.249,4.749    c0,0.776-0.018,1.531-0.051,2.253c-0.01,0.221,0.16,0.408,0.381,0.418c0.006,0,0.013,0,0.019,0c0.212,0,0.389-0.167,0.399-0.381    c0.034-0.734,0.052-1.502,0.052-2.291c0-1.802-0.098-3.547-0.28-5.081c0.038-0.003,0.074-0.014,0.113-0.014h0.747    c0.171,1.563,0.265,3.333,0.265,5.166c0,0.818-0.018,1.614-0.051,2.376c-0.01,0.221,0.161,0.408,0.382,0.417    c0.006,0,0.012,0,0.018,0c0.212,0,0.39-0.167,0.399-0.382c0.034-0.773,0.052-1.581,0.052-2.411c0-1.827-0.093-3.596-0.261-5.166    h1.116c-0.169,1.596-0.261,3.395-0.261,5.253c0,0.843,0.018,1.664,0.052,2.449c0.009,0.215,0.186,0.383,0.399,0.383    c0.006,0,0.012,0,0.018,0c0.221-0.009,0.392-0.196,0.382-0.417c-0.033-0.774-0.051-1.583-0.051-2.415    c0-1.863,0.094-3.665,0.266-5.253h0.232c0.085,0,0.167,0.014,0.249,0.03c-0.19,1.568-0.292,3.372-0.292,5.238    c0,0.795,0.018,1.568,0.052,2.31c0.01,0.214,0.187,0.381,0.399,0.381c0.006,0,0.013,0,0.019,0c0.22-0.01,0.391-0.197,0.381-0.418    c-0.033-0.729-0.051-1.49-0.051-2.272c0-1.703,0.089-3.344,0.25-4.801c0.307,0.328,0.504,0.798,0.504,1.321    c-0.004,0.132-0.106,3.243,0.002,4.316c0.039,0.384,0.277,1.382,0.304,1.495c0.044,0.184,0.208,0.307,0.389,0.307    c0.031,0,0.063-0.003,0.094-0.011C23.517,28.487,23.649,28.271,23.598,28.057z M16.092,2.299V1.882h1.403v0.024    c0,0.221,0.179,0.4,0.4,0.4h2.322c0.221,0,0.4-0.179,0.4-0.4V1.882h1.403v0.417c0,1.634-1.33,2.964-2.964,2.964    C17.422,5.263,16.092,3.934,16.092,2.299z M19.056,6.063c0.088,0,0.171-0.02,0.258-0.026v10.642h-0.669V6.021    C18.781,6.037,18.915,6.063,19.056,6.063z"/><path d="M11.921,19.02h-1.179v-2h0.308c0.221,0,0.4-0.179,0.4-0.4V5.928c1.502-0.446,2.606-1.816,2.606-3.452V1.694    c0-0.221-0.179-0.4-0.4-0.4l-1.722,0V1.287c0-0.221-0.179-0.4-0.4-0.4H9.297c-0.221,0-0.4,0.179-0.4,0.4v0.006l-1.722,0    c-0.106,0-0.208,0.042-0.283,0.117C6.817,1.485,6.775,1.587,6.775,1.693v0.783c0,1.582,1.033,2.916,2.458,3.406V16.62    c0,0.221,0.179,0.4,0.4,0.4h0.308v2H8.538c-1.184,0-2.146,1.097-2.146,2.444v3.52c0,0.001,0,0.001,0,0.002L6.398,26.1    c0,0.118,0.054,0.23,0.145,0.306l3.432,2.845c0.074,0.061,0.165,0.092,0.255,0.092c0.09,0,0.181-0.03,0.254-0.091l3.438-2.833    c0.095-0.078,0.148-0.195,0.146-0.318l-0.024-1.045c-0.054-1.17,0.023-3.555,0.024-3.592C14.067,20.116,13.104,19.02,11.921,19.02    z M7.575,2.476V2.093l1.322,0V2.1c0,0.221,0.179,0.4,0.4,0.4h2.236c0.221,0,0.4-0.179,0.4-0.4V2.094l1.322,0v0.382    c0,1.554-1.274,2.819-2.84,2.819S7.575,4.03,7.575,2.476z M10.416,6.095c0.08,0,0.155-0.018,0.234-0.023V16.22h-0.616V6.056    C10.161,6.07,10.285,6.095,10.416,6.095z M13.243,25.083l0.02,0.841l-3.033,2.499l-3.034-2.515l-0.005-4.445    c0-0.907,0.604-1.645,1.347-1.645h3.383c0.743,0,1.347,0.738,1.347,1.631C13.264,21.55,13.188,23.891,13.243,25.083z"/></g></g></svg>